<?xml version="1.0" encoding="utf-8"?>
<!-- Generator: Adobe Illustrator 21.0.2, SVG Export Plug-In . SVG Version: 6.00 Build 0)  -->
<svg version="1.0" id="Шар_1" xmlns="http://www.w3.org/2000/svg" xmlns:xlink="http://www.w3.org/1999/xlink" x="0px" y="0px"
	 viewBox="0 0 200 200" style="enable-background:new 0 0 200 200;" xml:space="preserve">
<style type="text/css">
	.st0{fill:#1E1E1E;}
</style>
<g>
	<g>
		<path class="st0" d="M66.2,113.3c-0.8,0-1.5,0-2.3,0c-13.4,0.2-32.5,1.7-46.4,5.8c-0.4,0.1-0.8,0.2-1.2,0.4c0,0,0,0,0,0
			c-8.6,2.8-14.7,6.5-16.3,11.3c0,0.1-0.1,0.2-0.1,0.4c-0.1,0.3-0.2,0.6-0.2,0.8c-0.1,0.4-0.1,0.9-0.1,1.3
			c0,3.4,22.9,13.3,66.7,13.3c43.7,0,66.7-9.9,66.7-13.3C132.8,117.5,89.2,113.3,66.2,113.3z M66.2,52.3v14.3
			c0,5.2,28.6,13.3,66.7,13.3c38,0,66.7-8.1,66.7-13.3V52.3c-14.9,8.8-50.7,11-66.7,11C116.9,63.3,81,61.1,66.2,52.3z M66.2,75.7V90
			c0,5.2,28.6,13.3,66.7,13.3c38,0,66.7-8.1,66.7-13.3V75.7c-14.9,8.8-50.7,11-66.7,11C116.9,86.7,81,84.5,66.2,75.7z M66.2,28.8
			v14.5c0,5.2,28.6,13.3,66.7,13.3c38,0,66.7-8.1,66.7-13.3V28.8c-13.6,8-45,11.2-66.7,11.2S79.7,36.8,66.2,28.8z M66.2,99v7.7
			c3.4,0,21.3,0.2,38.3,3.2c18.4,3.3,29.6,8.9,33.5,16.8c37.1-0.2,61.6-8.1,61.6-13.3V99c-14.9,8.8-50.7,11-66.7,11
			C116.9,110,81,107.8,66.2,99z M139.5,133.3v23.2c24.9-0.7,60-5.5,60-19.9v-14.1C186.7,130.4,158.3,133,139.5,133.3
			C139.5,133.3,139.5,133.3,139.5,133.3z M-0.5,165.7V180c0,15.8,41.9,20,66.7,20c24.8,0,66.7-4.2,66.7-20v-14.3
			c-14.9,8.8-50.7,11-66.7,11C50.2,176.7,14.4,174.5-0.5,165.7z M-0.5,142.1v14.5c0,5.2,28.6,13.3,66.7,13.3
			c38,0,66.7-8.1,66.7-13.3v-14.5c-13.6,8-45,11.2-66.7,11.2C44.5,153.3,13.1,150.1-0.5,142.1z M132.8,33.3
			c43.7,0,66.7-9.9,66.7-13.3c0-13.7-34.6-20-66.7-20c-32.1,0-66.7,6.3-66.7,20C66.2,23.4,89.1,33.3,132.8,33.3z"/>
	</g>
</g>
</svg>
